<svg xmlns="http://www.w3.org/2000/svg" width="306" height="47" viewBox="0 0 306 47">
    <g fill="none" fill-rule="evenodd">
        <g>
            <path fill="#3F3F40" fill-rule="nonzero" d="M71 36.86c-1.706 1.225-3.772 1.844-5.87 1.76-1.48.038-2.952-.235-4.32-.8-1.182-.51-2.234-1.28-3.08-2.25-.853-1.014-1.49-2.191-1.87-3.46-.427-1.422-.662-2.895-.7-4.38-.017-1.478.226-2.947.72-4.34.442-1.257 1.12-2.418 2-3.42.87-.962 1.933-1.728 3.12-2.25 1.233-.549 2.57-.825 3.92-.81 1.611-.058 3.206.34 4.6 1.15 1.19.74 2.193 1.747 2.93 2.94.744 1.172 1.27 2.47 1.55 3.83.273 1.315.387 2.658.34 4H58.76c-.033.878.075 1.756.32 2.6.468 1.647 1.65 2.997 3.22 3.68.927.39 1.925.581 2.93.56 1.263.056 2.51-.294 3.56-1 .964-.735 1.617-1.806 1.83-3H74c-.32 2.043-1.39 3.893-3 5.19zm-.82-13.35c-1.337-2.992-4.813-4.375-7.84-3.12-.69.294-1.313.726-1.83 1.27-.515.544-.925 1.177-1.21 1.87-.297.723-.473 1.49-.52 2.27H70.7c-.045-.789-.228-1.564-.54-2.29h.02zM81.39 17.4v2.81h.08c.549-1.134 1.496-2.028 2.66-2.51 1.263-.542 2.626-.812 4-.79 1.45-.033 2.888.272 4.2.89 1.165.564 2.19 1.38 3 2.39.806 1.039 1.41 2.219 1.78 3.48.414 1.354.62 2.764.61 4.18.007 1.415-.192 2.823-.59 4.18-.351 1.253-.95 2.422-1.76 3.44-.81.99-1.836 1.78-3 2.31-1.307.584-2.728.871-4.16.84-.574-.004-1.146-.058-1.71-.16-.64-.107-1.267-.28-1.87-.52-.626-.252-1.215-.588-1.75-1-.556-.425-1.028-.951-1.39-1.55h-.08V46.1H78V17.4h3.39zm12.29 7.37c-.242-.886-.638-1.722-1.17-2.47-.522-.725-1.207-1.317-2-1.73-.89-.444-1.875-.664-2.87-.64-1.955-.086-3.814.85-4.91 2.47-.52.76-.893 1.612-1.1 2.51-.231.936-.349 1.896-.35 2.86-.005.995.12 1.987.37 2.95.217.905.604 1.76 1.14 2.52.527.725 1.21 1.323 2 1.75.931.46 1.961.687 3 .66 1.043.044 2.078-.191 3-.68.773-.44 1.428-1.062 1.91-1.81.484-.794.823-1.667 1-2.58.216-.985.323-1.991.32-3 .01-.947-.105-1.892-.34-2.81zM101.9 13.66V9.47h3.42v4.19h-3.42zm3.42 3.74v20.78h-3.42V17.4h3.42zM114.16 17.4v2.81h.08c.546-1.137 1.494-2.031 2.66-2.51 1.263-.542 2.626-.812 4-.79 1.45-.03 2.887.274 4.2.89 1.167.56 2.193 1.378 3 2.39.809 1.038 1.416 2.218 1.79 3.48.41 1.355.615 2.764.61 4.18.007 1.415-.192 2.823-.59 4.18-.359 1.252-.96 2.42-1.77 3.44-.808.991-1.835 1.782-3 2.31-1.308.583-2.728.87-4.16.84-.574-.004-1.146-.058-1.71-.16-.64-.105-1.267-.28-1.87-.52-.626-.252-1.215-.588-1.75-1-.556-.425-1.028-.951-1.39-1.55h-.08V46.1h-3.42V17.4h3.4zm12.29 7.37c-.242-.886-.638-1.722-1.17-2.47-.522-.725-1.207-1.317-2-1.73-.893-.445-1.882-.665-2.88-.64-1.951-.082-3.806.853-4.9 2.47-.52.762-.895 1.613-1.11 2.51-.467 1.909-.467 3.901 0 5.81.22.905.61 1.76 1.15 2.52.527.725 1.21 1.323 2 1.75.931.461 1.961.688 3 .66 1.042.042 2.077-.193 3-.68.773-.44 1.428-1.062 1.91-1.81.48-.795.82-1.668 1-2.58.216-.985.323-1.991.32-3 .016-.947-.091-1.891-.32-2.81zM137.88 9.47v11h.12c.257-.617.642-1.173 1.13-1.63.483-.443 1.033-.808 1.63-1.08.604-.281 1.238-.493 1.89-.63.629-.13 1.268-.196 1.91-.2 1.163-.035 2.322.159 3.41.57.837.318 1.584.832 2.18 1.5.572.699.976 1.52 1.18 2.4.238 1.006.352 2.037.34 3.07v13.71h-3.41V24.11c.091-1.149-.33-2.278-1.153-3.085-.823-.807-1.96-1.208-3.107-1.095-.926-.02-1.847.142-2.71.48-.734.302-1.388.771-1.91 1.37-.518.604-.906 1.31-1.14 2.07-.267.837-.4 1.711-.39 2.59v11.74h-3.41V9.47h3.44zM172.78 38.62c-.774.043-1.533-.223-2.11-.74-.581-.67-.863-1.547-.78-2.43-.87 1.074-1.999 1.91-3.28 2.43-1.274.499-2.632.75-4 .74-.892.005-1.782-.095-2.65-.3-.794-.178-1.543-.519-2.2-1-.633-.474-1.141-1.095-1.48-1.81-.39-.838-.578-1.756-.55-2.68-.035-.999.174-1.99.61-2.89.379-.724.92-1.35 1.58-1.83.686-.482 1.451-.84 2.26-1.06.852-.25 1.716-.454 2.59-.61.94-.187 1.83-.327 2.67-.42.756-.077 1.504-.21 2.24-.4.56-.135 1.08-.398 1.52-.77.4-.377.609-.912.57-1.46.032-.632-.117-1.26-.43-1.81-.267-.422-.639-.767-1.08-1-.464-.247-.969-.41-1.49-.48-.54-.08-1.084-.12-1.63-.12-1.257-.046-2.505.236-3.62.82-1.037.69-1.63 1.877-1.56 3.12h-3.46c.013-1.134.287-2.25.8-3.26.467-.858 1.128-1.594 1.93-2.15.84-.58 1.778-1 2.77-1.24 1.08-.244 2.183-.365 3.29-.36.937.002 1.872.068 2.8.2.88.123 1.73.404 2.51.83.748.413 1.372 1.017 1.81 1.75.492.895.727 1.91.68 2.93v10.7c-.017.593.03 1.187.14 1.77.1.37.41.56.95.56.341-.017.678-.085 1-.2v2.65c-.741.379-1.568.558-2.4.52zM168 28.15c-.667.153-1.397.273-2.19.36-.77.1-1.54.2-2.32.32-.719.107-1.421.305-2.09.59-.587.249-1.103.64-1.5 1.14-.413.583-.62 1.286-.59 2-.014.498.104.991.34 1.43.224.378.527.702.89.95.394.252.831.429 1.29.52.493.109.996.162 1.5.16.987.025 1.97-.131 2.9-.46.735-.26 1.413-.657 2-1.17.476-.426.858-.947 1.12-1.53.232-.48.359-1.006.37-1.54v-3.5c-.514.364-1.1.614-1.72.73zM181.63 17.4v3.29h.08c1.323-2.466 3.956-3.941 6.75-3.78 1.166-.036 2.328.158 3.42.57.85.318 1.609.84 2.21 1.52.576.698.983 1.52 1.19 2.4.233 1.007.347 2.037.34 3.07v13.71h-3.42V24.11c.06-1.13-.345-2.235-1.12-3.06-.838-.78-1.957-1.184-3.1-1.12-.926-.02-1.847.142-2.71.48-.736.298-1.391.768-1.91 1.37-.521.604-.913 1.308-1.15 2.07-.264.838-.392 1.712-.38 2.59v11.74h-3.42V17.4h3.22zM217.65 38.18L209.93 17.4 213.75 17.4 219.58 34.72 219.66 34.72 225.33 17.4 228.91 17.4 221.31 38.18zM232.25 13.66V9.47h3.41v4.19h-3.41zm3.41 3.74v20.78h-3.41V17.4h3.41zM256.13 38.18v-2.81h-.08c-.542 1.135-1.492 2.024-2.66 2.49-1.268.523-2.629.781-4 .76-1.45.035-2.887-.266-4.2-.88-1.164-.557-2.189-1.367-3-2.37-.81-1.03-1.418-2.204-1.79-3.46-.41-1.355-.615-2.764-.61-4.18-.007-1.415.191-2.823.59-4.18.357-1.252.958-2.422 1.77-3.44.81-.994 1.836-1.791 3-2.33 1.302-.604 2.725-.901 4.16-.87.58.007 1.159.06 1.73.16.636.112 1.256.297 1.85.55.624.257 1.212.593 1.75 1 .556.425 1.028.951 1.39 1.55h.08V9.47h3.42v28.71h-3.4zm-12.28-7.38c.231.889.62 1.73 1.15 2.48.524.721 1.208 1.31 2 1.72.893.445 1.882.665 2.88.64 1.951.082 3.806-.853 4.9-2.47.521-.765.897-1.62 1.11-2.52.223-.934.337-1.89.34-2.85.006-1.011-.115-2.019-.36-3-.22-.902-.61-1.754-1.15-2.51-.524-.729-1.208-1.328-2-1.75-.931-.461-1.961-.688-3-.66-1.022-.031-2.035.203-2.94.68-.781.437-1.444 1.059-1.93 1.81-.483.79-.821 1.661-1 2.57-.223.984-.333 1.99-.33 3-.023.964.088 1.927.33 2.86zM279.53 36.86c-1.706 1.223-3.772 1.842-5.87 1.76-1.48.038-2.952-.235-4.32-.8-1.182-.51-2.234-1.28-3.08-2.25-.853-1.014-1.49-2.191-1.87-3.46-.427-1.422-.662-2.895-.7-4.38-.017-1.478.226-2.947.72-4.34.438-1.26 1.117-2.42 2-3.42.86-.964 1.917-1.731 3.1-2.25 1.233-.549 2.57-.825 3.92-.81 1.611-.058 3.206.34 4.6 1.15 1.205.736 2.222 1.742 2.97 2.94.733 1.186 1.248 2.493 1.52 3.86.28 1.314.398 2.657.35 4h-15.56c-.033.878.075 1.756.32 2.6.46 1.648 1.64 3 3.21 3.68.93.391 1.932.582 2.94.56 1.263.055 2.51-.296 3.56-1 .961-.738 1.614-1.807 1.83-3h3.37c-.33 2.034-1.402 3.873-3.01 5.16zm-.83-13.35c-.284-.7-.706-1.336-1.24-1.87-.532-.53-1.16-.954-1.85-1.25-.743-.314-1.543-.47-2.35-.46-.823-.015-1.64.142-2.4.46-.7.29-1.334.723-1.86 1.27-.512.544-.919 1.178-1.2 1.87-.302.721-.478 1.49-.52 2.27h11.94c-.043-.787-.219-1.561-.52-2.29zM285.92 23.53c.398-1.274 1.055-2.452 1.93-3.46.87-.99 1.945-1.778 3.15-2.31 2.79-1.133 5.91-1.133 8.7 0 1.209.531 2.287 1.32 3.16 2.31.875 1.008 1.532 2.186 1.93 3.46.438 1.384.654 2.829.64 4.28.015 1.445-.201 2.883-.64 4.26-.403 1.266-1.06 2.436-1.93 3.44-.87.988-1.95 1.77-3.16 2.29-2.797 1.093-5.903 1.093-8.7 0-1.217-.517-2.304-1.3-3.18-2.29-.87-1.004-1.527-2.174-1.93-3.44-.439-1.377-.655-2.815-.64-4.26-.004-1.453.222-2.898.67-4.28zm3.48 7.64c.293.902.765 1.736 1.39 2.45.571.648 1.278 1.164 2.07 1.51 1.596.687 3.404.687 5 0 .816-.34 1.547-.855 2.14-1.51.622-.716 1.095-1.549 1.39-2.45.667-2.19.667-4.53 0-6.72-.3-.9-.772-1.731-1.39-2.45-.57-.655-1.276-1.177-2.07-1.53-1.596-.687-3.404-.687-5 0-.82.34-1.552.864-2.14 1.53-.624.722-1.097 1.562-1.39 2.47-.667 2.19-.667 4.53 0 6.72v-.02z"/>
            <path fill="#8CBE3F" d="M20.84.84C4.62 2.84.59 23.57.66 34.73c0 0 .18.19.21-.08 1.22-8.55 7.48-17.55 15.49-21 11.11-4.81 25.11-1.94 24.33 11.7-.2 3.48-1.91 4.09-4.23 4.11l-20.81.16c-1.038.01-1.875.852-1.88 1.89-3 19.4 25.68 23.26 29.27-5.32 1.51-12-6.76-27.2-22.2-25.33V.84zM24 16.1c6.95-1.43 6.67 7.23 4.38 8.36-2.29 1.13-6.43.86-10.07.65-4.34-.26-2.37-3.12-1.32-4.53 1.705-2.306 4.201-3.901 7.01-4.48z"/>
        </g>
    </g>
</svg>
